<svg width="214" height="121" viewBox="0 0 214 121" fill="none" xmlns="http://www.w3.org/2000/svg">
<g clip-path="url(#clip0_29_226)">
<path d="M69.5604 108.124H60.8066V73.6881H69.5604V108.124Z" fill="white"/>
<mask id="mask0_29_226" style="mask-type:luminance" maskUnits="userSpaceOnUse" x="0" y="-1" width="214" height="122">
<path d="M0.0218506 120.999H213.978V-0.000663757H0.0218506V120.999Z" fill="white"/>
</mask>
<g mask="url(#mask0_29_226)">
<path d="M140.145 83.5551C139.784 83.3735 136.967 81.7166 132.78 81.7166C127.121 81.7166 123.194 85.625 123.194 90.9014C123.194 96.0182 126.952 100.095 132.78 100.095C136.895 100.095 139.759 98.4707 140.145 98.267V107.51C139.047 107.812 136.055 108.734 132.167 108.734C122.321 108.734 113.678 101.997 113.678 90.8987C113.678 80.6184 121.498 73.0766 132.167 73.0766C136.271 73.0766 139.315 74.0676 140.145 74.3125V83.5551ZM48.7729 83.5551C48.4208 83.3735 45.6064 81.7166 41.4195 81.7166C35.7491 81.7166 31.8256 85.625 31.8256 90.9014C31.8256 96.0182 35.5855 100.095 41.4195 100.095C45.5343 100.095 48.3958 98.4707 48.7729 98.267V107.51C47.686 107.812 44.6969 108.734 40.7873 108.734C30.9494 108.734 22.3177 101.997 22.3177 90.8987C22.3177 80.6184 30.137 73.0766 40.7901 73.0766C44.9104 73.0766 47.9494 74.0676 48.7729 74.3125V83.5551ZM167.681 81.846C162.488 81.846 158.631 85.903 158.631 90.9014C158.631 95.9109 162.488 99.9653 167.681 99.9653C172.869 99.9653 176.737 95.9109 176.737 90.9014C176.737 85.903 172.869 81.846 167.681 81.846ZM186.012 90.9014C186.012 100.752 178.351 108.734 167.684 108.734C157.011 108.734 149.361 100.752 149.361 90.8987C149.361 81.067 157.014 73.0766 167.681 73.0766C178.351 73.0766 186.012 81.0669 186.012 90.9014ZM102.756 81.5157C102.626 81.4744 98.9409 80.4642 95.913 80.4642C92.4055 80.4642 90.4978 81.6313 90.4978 83.2855C90.4978 85.3829 93.0709 86.1149 94.51 86.5663L96.9251 87.3288C102.609 89.1234 105.196 92.985 105.196 97.1798C105.196 105.831 97.5323 108.737 90.8333 108.737C86.1778 108.737 81.8162 107.884 81.3864 107.796V99.8689C82.1572 100.062 85.8284 101.152 89.6521 101.152C94.0081 101.152 96.0101 99.8855 96.0101 97.9367C96.0101 96.1917 94.2771 95.1842 92.106 94.5071C91.5792 94.331 90.7806 94.0832 90.2372 93.907C85.3626 92.3767 81.2977 89.5307 81.2977 83.8332C81.2977 77.3925 86.1556 73.0683 94.2244 73.0683C98.4862 73.0683 102.496 74.095 102.756 74.1638V81.5128V81.5157Z" fill="white"/>
<path d="M13.0345 36.681C13.0345 34.3084 11.0824 32.3844 8.68953 32.3844C6.29661 32.3844 4.3418 34.3083 4.3418 36.6782V45.72C4.37043 46.8454 4.84093 47.9152 5.6529 48.7011C6.46488 49.487 7.55408 49.9268 8.68815 49.9268C9.82223 49.9268 10.9114 49.487 11.7234 48.7011C12.5354 47.9152 13.0058 46.8454 13.0345 45.72V36.681ZM36.9054 24.818C36.9054 23.6738 36.4475 22.5763 35.6324 21.7672C34.8173 20.9581 33.7118 20.5036 32.5591 20.5036C31.4064 20.5036 30.3008 20.9581 29.4857 21.7672C28.6706 22.5763 28.2127 23.6738 28.2127 24.818V45.72C28.2127 46.8643 28.6706 47.9617 29.4857 48.7708C30.3008 49.58 31.4064 50.0345 32.5591 50.0345C33.7118 50.0345 34.8173 49.58 35.6324 48.7708C36.4475 47.9617 36.9054 46.8643 36.9054 45.72V24.8152V24.818ZM60.7791 8.5841C60.7791 6.21149 58.8271 4.28476 56.4341 4.28476C54.0384 4.28476 52.0864 6.21149 52.0864 8.5841V54.3103C52.115 55.4357 52.5855 56.5055 53.3975 57.2914C54.2095 58.0773 55.2987 58.5173 56.4327 58.5173C57.5668 58.5173 58.656 58.0773 59.468 57.2914C60.28 56.5055 60.7505 55.4357 60.7791 54.3103V8.5841ZM84.65 24.818C84.65 23.6738 84.1921 22.5763 83.377 21.7672C82.5619 20.9581 81.4564 20.5036 80.3037 20.5036C79.1509 20.5036 78.0454 20.9581 77.2303 21.7672C76.4152 22.5763 75.9573 23.6738 75.9573 24.818V45.72C75.9573 46.8643 76.4152 47.9617 77.2303 48.7708C78.0454 49.58 79.1509 50.0345 80.3037 50.0345C81.4564 50.0345 82.5619 49.58 83.377 48.7708C84.1921 47.9617 84.65 46.8643 84.65 45.72V24.8152V24.818ZM108.496 36.681C108.497 35.5427 108.042 34.4507 107.232 33.645C106.422 32.8393 105.323 32.3858 104.176 32.3844C103.027 32.3836 101.924 32.8353 101.11 33.6401C100.295 34.445 99.8354 35.5374 99.831 36.6782V45.72C99.831 46.8607 100.287 47.9546 101.1 48.7611C101.912 49.5676 103.014 50.0207 104.163 50.0207C105.313 50.0207 106.415 49.5676 107.227 48.7611C108.04 47.9546 108.496 46.8607 108.496 45.72V36.681ZM132.378 24.818C132.349 23.6962 131.88 22.6299 131.071 21.8465C130.262 21.0631 129.176 20.6247 128.046 20.6247C126.915 20.6247 125.829 21.0631 125.02 21.8465C124.211 22.6299 123.742 23.6962 123.713 24.818V45.72C123.713 46.8607 124.169 47.9546 124.982 48.7611C125.794 49.5676 126.896 50.0207 128.046 50.0207C129.195 50.0207 130.297 49.5676 131.109 48.7611C131.922 47.9546 132.378 46.8607 132.378 45.72V24.8152V24.818ZM156.266 8.5841C156.266 7.44349 155.809 6.34958 154.997 5.54304C154.184 4.73651 153.082 4.28341 151.933 4.28341C150.784 4.28341 149.682 4.73651 148.87 5.54304C148.057 6.34958 147.601 7.44349 147.601 8.5841V54.3103C147.575 54.891 147.668 55.4707 147.874 56.0146C148.08 56.5586 148.395 57.0555 148.8 57.4754C149.205 57.8952 149.691 58.2294 150.23 58.4576C150.768 58.6859 151.348 58.8037 151.933 58.8037C152.519 58.8037 153.098 58.6859 153.636 58.4576C154.175 58.2294 154.661 57.8952 155.066 57.4754C155.471 57.0555 155.786 56.5586 155.992 56.0146C156.198 55.4707 156.291 54.891 156.266 54.3103V8.5841ZM180.148 24.818C180.148 22.4427 178.209 20.5131 175.761 20.5131C174.612 20.5139 173.51 20.9674 172.698 21.7741C171.886 22.5808 171.43 23.6747 171.43 24.8152V45.72C171.43 48.1064 173.371 50.0303 175.761 50.0303C178.209 50.0303 180.148 48.1064 180.148 45.72V24.8152V24.818ZM203.985 36.681C203.985 35.5393 203.528 34.4443 202.715 33.637C201.902 32.8296 200.799 32.3761 199.649 32.3761C198.498 32.3761 197.395 32.8296 196.582 33.637C195.769 34.4443 195.312 35.5393 195.312 36.681V45.72C195.312 48.1064 197.256 50.033 199.649 50.033C202.039 50.033 203.982 48.1064 203.982 45.72V36.681H203.985Z" fill="white"/>
<path d="M198.975 103.587V104.127H197.428V108.121H196.79V104.13H195.237V103.587H198.975ZM199.299 103.587H200.295L201.662 107.306H201.684L203.006 103.59H203.982V108.121H203.331V104.405H203.309L201.922 108.121H201.321L199.967 104.405H199.937V108.121H199.299V103.587Z" fill="white"/>
</g>
</g>
<defs>
<clipPath id="clip0_29_226">
<rect width="214" height="121" fill="white"/>
</clipPath>
</defs>
</svg>
