<svg width="233" height="41" viewBox="0 0 233 41" fill="none" xmlns="http://www.w3.org/2000/svg">
<g clip-path="url(#clip0_29_219)">
<path d="M52.3667 0.0187988L31.9469 15.9843C29.8467 8.00154 23.0411 2.14271 14.6628 2.14271H0V38.8574H14.6628C23.0443 38.8574 30.3741 33.0051 31.9437 25.0224L52.3635 40.9813L72.7931 25.0224V38.8541H95.8342V31.4073H80.6504V2.146H72.2688V15.9777L52.891 31.9432L48.7002 28.228L58.1303 20.7713L68.0781 12.7951L62.3178 8.0114L42.9432 23.4377L38.7524 19.7126L58.1303 4.81568L52.3667 0.0286622V0.0187988ZM7.85728 9.59283H14.1386C15.4492 9.59283 16.7275 9.89202 17.9054 10.4411C19.0866 10.9901 20.1642 11.7891 21.08 12.7853C21.9958 13.7815 22.7499 14.9749 23.2741 16.3229C23.7984 17.6709 24.0896 19.1701 24.0896 20.768C24.0896 22.2311 23.8243 23.658 23.3453 24.9764C22.8724 26.2846 22.1707 27.4953 21.2742 28.5502C20.3985 29.5803 19.3262 30.4192 18.1222 31.016C16.9184 31.6078 15.5819 31.9333 14.1418 31.9333H7.85404L7.85728 9.59283ZM122.018 31.4073V38.8574H98.9765V2.146H107.355V31.4073H122.018Z" fill="white"/>
<path d="M219.043 39.5313C226.13 39.5313 231.89 35.9312 233 28.0537L232.557 27.6032H230.563L230.12 28.0537C229.01 33.6791 225.466 36.8321 219.266 36.8321C211.512 36.8321 205.972 30.9798 205.972 20.6233C205.972 10.2668 211.732 4.42107 219.263 4.42107C225.466 4.42107 229.013 7.57406 230.12 12.749L230.563 13.1995H232.557L233 12.749C231.893 5.54878 226.353 1.7218 219.043 1.7218C210.402 1.7218 202.649 8.02448 202.649 20.403C202.649 33.2319 210.402 39.5313 219.043 39.5313ZM196.448 38.4069V2.84622L196.005 2.3958H192.458L192.018 2.84622L178.724 34.5799H178.281L164.547 2.84622L164.103 2.3958H160.56L160.116 2.84622V38.4069L160.56 38.8573H162.553L162.996 38.4069V8.24806H163.44L176.287 38.4069L176.731 38.8573H179.391L179.834 38.4069L192.681 8.24806H193.345V38.4069L193.788 38.8573H195.782L196.448 38.4069ZM153.253 38.4069V36.8288L152.809 36.3816H133.758L133.315 35.9312V22.4283L133.758 21.9778H151.699L152.143 21.5274V19.7257L151.699 19.2753H133.758L133.315 18.8249V5.5455L133.758 5.09836H152.809L153.253 4.64793V2.84622L152.809 2.3958H130.655L130.211 2.84622V38.4069L130.655 38.8573H152.809L153.253 38.4069Z" fill="white"/>
</g>
<defs>
<clipPath id="clip0_29_219">
<rect width="233" height="41" fill="white"/>
</clipPath>
</defs>
</svg>
