<svg width="247" height="29" viewBox="0 0 247 29" fill="none" xmlns="http://www.w3.org/2000/svg">
<g clip-path="url(#clip0_29_222)">
<path d="M160.156 27.9417H153.357V1.06323L175.223 1.08021C175.223 1.08021 179.226 0.936637 181.773 3.37284C181.773 3.37284 184.372 5.47556 184.372 10.615V27.9371H177.591V10.1673C177.591 10.1673 177.674 8.35485 177.038 7.71878C177.038 7.71878 176.474 7.02868 175.401 7.02868H160.14L160.154 27.9324L160.156 27.9417ZM189.098 27.9371V1.0833H216.382V7.05647L195.855 7.05492V11.6216H210.115V17.3895H195.855V21.9716H216.509V27.9463H189.082L189.098 27.9371ZM141.51 27.9371V1.0833H148.28V27.9463H141.51V27.9371ZM226.127 27.9371V7.04875H219.737V1.07558H245.156V7.04875H232.902V27.9371H226.132H226.127ZM119.15 27.9371V7.04875H112.759V1.07558H138.179V7.04875H125.925V27.9371H119.155H119.15ZM98.7346 11.6031C100.389 11.5908 101.379 11.6047 101.777 11.37C101.777 11.37 102.472 10.9979 102.48 10.1982L102.481 8.4413C102.481 7.6385 101.779 7.26952 101.779 7.26952C101.251 6.99163 100.357 7.04412 98.2326 7.04257H85.0432V11.6031H99.0375H98.7346ZM102.383 27.9371V18.7697C102.383 17.9453 101.672 17.601 101.672 17.601C101.352 17.408 100.391 17.3725 98.9769 17.3725H99.3052H85.0432V27.9355H78.2731V1.08176H99.4056C103.055 1.09257 105.575 1.61284 107.31 3.2447C109.016 4.9275 109.242 7.12903 109.251 9.4201V11.3329C109.274 13.2797 108.217 15.0552 106.958 16.0895L107.212 16.2115C107.725 16.4524 108.007 16.7935 108.007 16.7935C108.963 17.9792 108.952 18.9982 108.95 20.2518V27.9417H102.384L102.383 27.9371ZM0.0031874 1.07404V27.9293H6.77324V17.3756H27.2842V11.6047H6.77324V7.04103H30.615V1.06786H0L0.0031874 1.07404ZM242.869 23.1866V24.4202H244.055C244.375 24.4202 244.686 24.3353 244.734 23.8737C244.802 23.2623 244.345 23.1866 244.055 23.1866H242.869ZM242.393 22.7806H244.044C244.617 22.7806 245.172 22.8856 245.22 23.6946C245.239 24.1577 245.094 24.326 244.734 24.59C245.115 24.8247 245.124 24.8818 245.182 25.5009C245.22 25.9733 245.151 26.0489 245.357 26.3593H244.793L244.716 25.9069C244.637 25.4823 244.852 24.8262 244.084 24.8262H242.869V26.3593H242.393V22.7806ZM243.636 21.7925C243.246 21.7929 242.861 21.8679 242.502 22.0131C242.142 22.1582 241.816 22.3708 241.542 22.6385C241.267 22.9062 241.05 23.2238 240.903 23.573C240.756 23.9222 240.682 24.2962 240.684 24.6734C240.684 26.2543 242.007 27.5449 243.648 27.5357C244.038 27.535 244.423 27.46 244.782 27.315C245.142 27.17 245.468 26.9579 245.743 26.6908C246.018 26.4236 246.235 26.1067 246.384 25.758C246.532 25.4093 246.608 25.0358 246.607 24.6587C246.606 24.2816 246.529 23.9083 246.379 23.5602C246.23 23.2121 246.011 22.8959 245.735 22.6298C245.459 22.3636 245.132 22.1527 244.772 22.0091C244.412 21.8654 244.027 21.7918 243.637 21.7925M243.647 27.9093C243.207 27.9101 242.77 27.8267 242.363 27.664C241.956 27.5012 241.587 27.2623 241.275 26.9608C240.964 26.6593 240.717 26.3013 240.548 25.9072C240.38 25.5131 240.293 25.0906 240.294 24.6641C240.293 24.2374 240.379 23.8147 240.548 23.4203C240.716 23.026 240.963 22.6676 241.274 22.3659C241.586 22.0641 241.956 21.8249 242.363 21.6619C242.77 21.4988 243.206 21.4152 243.647 21.4158C245.496 21.4158 247 22.8763 247 24.6656C246.998 25.5261 246.644 26.3506 246.015 26.9586C245.387 27.5666 244.535 27.9085 243.647 27.9093Z" fill="white"/>
<path d="M68.9642 28.2042C71.1635 27.4801 72.8752 25.0269 73.2863 21.9423V21.0499H62.0109V28.2042H68.9642ZM73.2879 7.93338V7.12594C72.856 3.90701 71.0169 1.37201 68.6726 0.774536H62.0125V7.93338H73.2879ZM33.6047 21.0515V21.9346C34.0127 25.0223 35.7244 27.4801 37.93 28.2042H44.8467V21.0499H33.6047V21.0515ZM38.2185 0.780712C35.8774 1.37664 34.0334 3.91473 33.6047 7.13829V7.93955H44.8467V0.782255H38.2185V0.780712ZM73.2959 10.9176H62.0205V18.0749H73.2959V10.9176ZM47.9242 28.2088H58.9542V21.0546H47.9242V28.2088ZM58.9542 0.774536H47.9242V7.93183H58.9542V0.774536ZM33.6143 18.0657H44.8563V10.9084H33.6143V18.0657Z" fill="white"/>
</g>
<defs>
<clipPath id="clip0_29_222">
<rect width="247" height="29" fill="white"/>
</clipPath>
</defs>
</svg>
