<?xml version="1.0" encoding="utf-8"?>
<!-- Generator: Adobe Illustrator 26.0.3, SVG Export Plug-In . SVG Version: 6.00 Build 0)  -->
<svg version="1.0" id="katman_1" xmlns="http://www.w3.org/2000/svg" xmlns:xlink="http://www.w3.org/1999/xlink" x="0px" y="0px"
	 viewBox="0 0 600 450" style="enable-background:new 0 0 600 450;" xml:space="preserve">
<style type="text/css">
	.st0{fill:#8A8A8D;}
	.st1{fill:#67B345;}
</style>
<path class="st0" d="M126.9,238.7h7v27.6h-7V238.7z M190,246.6c-0.3-0.1-2.5-1.5-5.9-1.5c-4.5,0-7.6,3.1-7.6,7.4
	c0,4.1,3,7.4,7.6,7.4c3.3,0,5.5-1.3,5.9-1.5v7.4c-0.9,0.3-3.3,1-6.3,1c-7.8,0-14.7-5.4-14.7-14.3c0-8.2,6.2-14.3,14.7-14.3
	c3.3,0,5.7,0.8,6.3,1V246.6z M117.4,246.6c-0.3-0.1-2.5-1.5-5.8-1.5c-4.5,0-7.6,3.1-7.6,7.4c0,4.1,3,7.4,7.6,7.4
	c3.3,0,5.5-1.3,5.8-1.5v7.4c-0.9,0.3-3.2,1-6.4,1c-7.8,0-14.7-5.4-14.7-14.3c0-8.2,6.2-14.3,14.7-14.3c3.3,0,5.7,0.8,6.4,1V246.6z
	 M211.9,245.3c-4.1,0-7.2,3.2-7.2,7.2c0,4,3.1,7.3,7.2,7.3c4.1,0,7.2-3.2,7.2-7.3C219.1,248.5,216,245.3,211.9,245.3z M226.4,252.5
	c0,7.9-6.1,14.3-14.6,14.3c-8.5,0-14.5-6.4-14.5-14.3c0-7.9,6.1-14.3,14.5-14.3C220.4,238.2,226.4,244.6,226.4,252.5z M160.3,245
	c-0.1,0-3-0.8-5.4-0.8c-2.8,0-4.3,0.9-4.3,2.3c0,1.7,2,2.3,3.2,2.6l1.9,0.6c4.5,1.4,6.6,4.5,6.6,7.9c0,6.9-6.1,9.3-11.4,9.3
	c-3.7,0-7.2-0.7-7.5-0.8v-6.3c0.6,0.2,3.5,1,6.6,1c3.5,0,5.1-1,5.1-2.6c0-1.4-1.4-2.2-3.1-2.7c-0.5-0.2-1-0.3-1.5-0.5
	c-3.9-1.2-7.1-3.5-7.1-8.1c0-5.2,3.9-8.6,10.3-8.6c3.4,0,6.6,0.8,6.8,0.9V245z M89,209.1c0-1.9-1.5-3.4-3.5-3.4
	c-1.9,0-3.4,1.5-3.4,3.4v7.2c0,0.9,0.4,1.8,1,2.4c0.6,0.6,1.5,1,2.4,1c0.5,0,0.9-0.1,1.3-0.3c0.4-0.2,0.8-0.4,1.1-0.7
	c0.3-0.3,0.6-0.7,0.7-1.1c0.2-0.4,0.3-0.9,0.3-1.3V209.1z M108,199.6c0-0.9-0.4-1.8-1-2.4c-0.6-0.6-1.5-1-2.4-1
	c-1.9,0-3.5,1.5-3.5,3.4v16.7c0,1.9,1.6,3.5,3.5,3.5c0.5,0,0.9-0.1,1.3-0.3c0.4-0.2,0.8-0.4,1.1-0.7c0.3-0.3,0.6-0.7,0.7-1.1
	c0.2-0.4,0.3-0.9,0.3-1.3V199.6z M126.9,186.6c0-0.5-0.1-0.9-0.3-1.3c-0.2-0.4-0.4-0.8-0.7-1.1c-0.3-0.3-0.7-0.6-1.1-0.7
	c-0.4-0.2-0.9-0.3-1.3-0.3c-1.9,0-3.5,1.5-3.5,3.4v36.6c0,0.9,0.4,1.8,1,2.4c0.6,0.6,1.5,1,2.4,1c0.5,0,0.9-0.1,1.3-0.3
	c0.4-0.2,0.8-0.4,1.1-0.8c0.3-0.3,0.6-0.7,0.7-1.1c0.2-0.4,0.3-0.9,0.3-1.3V186.6z M145.9,199.6c0-0.9-0.4-1.8-1-2.4
	c-0.6-0.6-1.5-1-2.4-1c-1.9,0-3.5,1.5-3.5,3.4v16.7c0,0.5,0.1,0.9,0.3,1.3c0.2,0.4,0.4,0.8,0.7,1.1c0.3,0.3,0.7,0.6,1.1,0.7
	c0.4,0.2,0.9,0.3,1.3,0.3c0.5,0,0.9-0.1,1.3-0.3c0.4-0.2,0.8-0.4,1.1-0.7c0.3-0.3,0.6-0.7,0.7-1.1c0.2-0.4,0.3-0.9,0.3-1.3V199.6z
	 M164.8,209.1c0-1.9-1.5-3.4-3.4-3.4c-1.9,0-3.5,1.5-3.5,3.4v7.2c0,0.5,0.1,0.9,0.3,1.3c0.2,0.4,0.4,0.8,0.7,1.1
	c0.3,0.3,0.7,0.6,1.1,0.7c0.4,0.2,0.9,0.3,1.3,0.3c0.5,0,0.9-0.1,1.3-0.3c0.4-0.2,0.8-0.4,1.1-0.7c0.3-0.3,0.6-0.7,0.7-1.1
	c0.2-0.4,0.3-0.9,0.3-1.3L164.8,209.1z M183.8,199.6c0-0.5-0.1-0.9-0.3-1.3c-0.2-0.4-0.4-0.8-0.7-1.1c-0.3-0.3-0.7-0.6-1.1-0.7
	c-0.4-0.2-0.9-0.3-1.3-0.3c-0.5,0-0.9,0.1-1.3,0.3c-0.4,0.2-0.8,0.4-1.1,0.7c-0.3,0.3-0.6,0.7-0.7,1.1c-0.2,0.4-0.3,0.9-0.3,1.3
	v16.7c0,0.5,0.1,0.9,0.3,1.3c0.2,0.4,0.4,0.8,0.7,1.1c0.3,0.3,0.7,0.6,1.1,0.7c0.4,0.2,0.9,0.3,1.3,0.3c0.5,0,0.9-0.1,1.3-0.3
	c0.4-0.2,0.8-0.4,1.1-0.7c0.3-0.3,0.6-0.7,0.7-1.1c0.2-0.4,0.3-0.9,0.3-1.3V199.6z M202.8,186.6c0-0.5-0.1-0.9-0.3-1.3
	c-0.2-0.4-0.4-0.8-0.7-1.1c-0.3-0.3-0.7-0.6-1.1-0.7c-0.4-0.2-0.9-0.3-1.3-0.3c-0.9,0-1.8,0.4-2.4,1s-1,1.5-1,2.4v36.6
	c0,1.9,1.6,3.5,3.4,3.5c0.5,0,0.9-0.1,1.3-0.3c0.4-0.2,0.8-0.4,1.1-0.7c0.3-0.3,0.6-0.7,0.7-1.1c0.2-0.4,0.3-0.9,0.3-1.3V186.6z
	 M221.8,199.6c0-1.9-1.6-3.4-3.5-3.4c-1.9,0-3.4,1.5-3.4,3.4v16.7c0,0.9,0.4,1.8,1,2.4c0.6,0.6,1.5,1,2.4,1c1.9,0,3.5-1.5,3.5-3.5
	V199.6z M240.7,209.1c0-1.9-1.6-3.4-3.5-3.4c-0.5,0-0.9,0.1-1.3,0.3c-0.4,0.2-0.8,0.4-1.1,0.7c-0.3,0.3-0.6,0.7-0.7,1.1
	c-0.2,0.4-0.3,0.9-0.3,1.3v7.2c0,0.5,0.1,0.9,0.3,1.3c0.2,0.4,0.4,0.8,0.7,1.1c0.3,0.3,0.7,0.6,1.1,0.7c0.4,0.2,0.9,0.3,1.3,0.3
	c0.5,0,0.9-0.1,1.3-0.3c0.4-0.2,0.8-0.4,1.1-0.7s0.6-0.7,0.7-1.1c0.2-0.4,0.3-0.9,0.3-1.3V209.1z"/>
<path class="st1" d="M315.4,266.3l-21.5-53.1v53.1h-4.5v-59.1h6.8l21.7,54.2l20.5-54.2h6.6v59.1h-4.4v-52.7l-20.3,52.7H315.4z
	 M392.5,254.7c-2.1,7.8-8.6,12.9-17.7,12.9c-11.6,0-20.3-8-20.3-22.6c0-14.6,8.5-22.6,19.5-22.6c10.9,0,19.3,7.4,19.3,23.6H359
	c0.4,12.1,7.3,17.7,15.8,17.7c6.4,0,11.3-3.5,13-9.1H392.5z M359.1,242.4h29.5c-0.6-10.9-6.7-16.3-14.7-16.3
	C366.2,226,359.9,231.7,359.1,242.4z M403.6,266.3v-42.7h3.6l0.7,8.2c2.3-6.5,6.6-9.4,12-9.4c1.7,0,3.4,0.3,4.4,0.7v4.4
	c-1.5-0.4-3-0.7-4.7-0.7c-6.2,0-11.6,6.1-11.6,16.3v23.3L403.6,266.3L403.6,266.3z M429.9,234.7c0.7-7.3,7.1-12.3,16.6-12.3
	c9.5,0,15.8,5.3,15.8,14v29.9h-3.6l-0.7-7.1c-2.6,4.4-7.5,8.3-15.1,8.3c-8.3,0-14.3-4.5-14.3-12.1c0-7.3,4.4-11.7,16.4-13.7
	l12.8-2.1V236c0-6.2-4.3-9.9-11.7-9.9c-6.8,0-11.2,3.5-11.7,8.7L429.9,234.7z M457.9,251.2v-8l-11.5,2c-10.2,1.7-13.1,4.9-13.1,10
	c0,5.7,4.4,8.6,10.8,8.6C450.9,263.8,457.9,258.6,457.9,251.2z M473.7,266.3v-59.1h4.4v33.8l20.4-17.4h6l-21.9,18.6l24.6,24h-6
	l-23.2-22.6v22.6H473.7z M512.8,213.3v-6.1h5.3v6.1H512.8z M513.2,266.3v-42.7h4.4v42.7H513.2z"/>
</svg>
