<svg width="237" height="67" viewBox="0 0 237 67" fill="none" xmlns="http://www.w3.org/2000/svg">
<g clip-path="url(#clip0_29_243)">
<path d="M182.714 0.849526V13.4883H199.914C199.914 13.4883 199.81 0.849526 199.914 0.849526H208.358V32.4467H199.914V18.5439H182.714V32.4464H174.27V0.849828H182.714M102.149 0.849526V6.22086H89.1131V32.4464H80.5649V6.22086H67.6361V0.849526H102.149ZM135.166 32.4467H125.656L122.878 25.6006H106.957L104.179 32.4464H94.7761L109.735 0.849526H120.1L135.166 32.4467ZM114.971 6.22086L108.987 20.5449H120.849L114.971 6.22086ZM215.096 32.4467V0.849225H223.644V32.4467H215.096ZM23.7208 0.849526V13.4883H40.8171V0.849526H49.3649V32.4467H40.8171V18.5439H23.7208V32.4464H15.1727C15.1727 32.4464 15.2797 0.849526 15.1727 0.849526H23.7208ZM56.0965 32.4467V0.849225H64.5379V32.4467H56.0965ZM134.845 23.7051C134.097 21.493 133.67 19.2815 133.67 16.9641C133.67 13.5938 134.311 10.4343 135.914 7.6957C137.516 4.95771 140.082 2.85115 143.181 1.69233C146.065 0.639353 149.264 0.00732422 152.589 0.00732422C156.432 0.00732422 160.068 0.849828 163.273 2.21912C166.36 3.58842 168.72 6.3267 169.358 9.59178C169.462 10.2235 169.566 10.8552 169.684 11.5928H160.81C160.706 10.7503 160.602 9.90749 160.276 9.17053C159.638 7.37998 158.139 6.01069 156.328 5.4839C155.141 5.16788 153.865 4.95741 152.589 4.95741C151.09 4.95741 149.695 5.16788 148.418 5.69467C146.171 6.43164 144.462 8.11695 143.714 10.3287C142.966 12.3301 142.538 14.6468 142.538 16.9641C142.538 18.8599 142.859 20.7557 143.393 22.441C144.034 24.7581 145.744 26.6538 147.988 27.4966C149.487 28.0231 150.986 28.3391 152.589 28.3391C153.968 28.3391 155.259 28.1287 156.536 27.7071C158.138 27.1806 159.534 26.0218 160.276 24.442C160.706 23.3891 160.914 22.2302 160.914 21.0717H169.892C169.788 22.0198 169.684 23.073 169.462 24.0208C168.72 27.1809 166.479 29.8134 163.481 30.9722C160.172 32.4467 156.432 33.184 152.589 33.184C149.591 33.184 146.706 32.7627 143.928 31.9205C139.867 30.6559 136.234 27.7071 134.845 23.7051ZM7.58695 41.2951L0 41.9256V43.0826H0.321209C3.31212 43.4002 3.31212 43.4002 3.31212 45.612V61.1998H7.90693V41.2951H7.58695ZM23.6137 47.1914C20.8357 47.1914 19.126 49.0887 18.3783 50.246V47.0865L18.0577 47.192L11.9673 48.1398V49.1916H12.1808C14.1041 49.2971 14.5318 49.6143 14.5318 51.4064V61.2004H18.3783V54.037C18.3783 52.1433 20.1948 49.614 22.1181 49.614C23.9346 49.614 24.0414 51.1941 24.0414 53.6167V61.1992H27.888V51.4055C27.888 48.6663 26.392 47.1914 23.6137 47.1914ZM38.5732 52.6683C37.077 51.931 35.7949 51.3005 35.7949 50.246C35.7949 49.0887 37.184 48.9826 37.8252 48.9826C39.4279 48.9826 40.8171 49.8263 41.4583 50.1393L41.9924 50.5636V47.7167L41.565 47.6142C40.8174 47.5087 39.535 47.1914 38.0391 47.1914C34.5131 47.1914 32.2692 48.6663 32.2692 51.3005C32.2692 53.5111 34.5131 54.6687 36.5435 55.6168C38.0394 56.3537 39.5353 56.9852 39.5353 58.1452C39.5353 59.1997 38.5735 59.7253 36.9708 59.7253C35.1543 59.7253 33.6584 58.8825 32.8037 58.3566L32.3763 58.0393V60.9884H32.5898C33.4449 61.1995 34.8337 61.5164 36.864 61.5164C40.7106 61.5164 43.0615 59.9366 43.0615 57.3021C43.0606 54.7746 40.71 53.617 38.5732 52.6683ZM55.4553 47.1914C54.0662 47.1914 52.6773 47.8235 51.3952 49.0887V47.0865L51.0746 47.1914L44.9842 48.1395V49.1913H45.3048C47.1213 49.2968 47.5487 49.614 47.5487 51.4061V66.9936H51.3952V59.9369C52.0364 60.7797 53.2117 61.517 55.3485 61.517C59.3022 61.517 61.439 58.9883 61.439 54.1428C61.439 49.7192 59.3019 47.1914 55.4553 47.1914ZM54.3867 49.2971C56.9512 49.2971 57.2718 52.0369 57.2718 54.1428C57.2718 57.7227 56.31 59.5145 54.3867 59.5145C51.9294 59.5145 51.3952 57.1974 51.3952 55.3032V54.0376C51.3952 52.6686 51.7155 49.2971 54.3867 49.2971ZM64.1102 48.1395V49.1913H64.3237C66.247 49.2968 66.6747 49.614 66.6747 51.4061V61.2001H70.4144V47.0865L70.2009 47.192L64.1102 48.1395ZM68.5979 45.5064C69.88 45.5064 70.9489 44.5572 70.9489 43.3999C70.9489 42.3454 69.8803 41.4007 68.5979 41.4007C67.3156 41.4007 66.247 42.3454 66.247 43.3999C66.247 44.5572 67.3159 45.5064 68.5979 45.5064ZM86.5489 50.246V47.4025L86.2283 47.297C85.6939 47.1914 85.0527 47.1914 84.4118 47.1914C82.275 47.1914 81.0997 48.7709 80.5653 49.9309V47.0859L80.245 47.1914L74.1545 48.1392V49.1909H74.3681C76.2913 49.2965 76.7187 49.6137 76.7187 51.4058V61.1998H80.5653V54.1425C80.5653 52.9852 80.9926 50.2457 84.5189 50.2457C84.9462 50.2457 85.4807 50.3513 85.908 50.4562L86.5492 50.6682L86.5489 50.246ZM101.615 52.8797C101.615 49.0887 99.478 47.1914 95.3109 47.1914C90.5022 47.1914 88.1519 49.4032 88.1519 53.9312C88.1519 58.6714 91.2505 61.5167 96.4862 61.5167C98.0479 61.5144 99.5991 61.2656 101.081 60.7797L101.295 60.6742V58.8831L100.974 58.9886C100.333 59.2 99.2642 59.5142 97.9821 59.5142C93.922 59.5142 92.3191 56.146 92.3191 53.0887H101.615V52.88L101.615 52.8797ZM95.2038 48.6666C97.2342 48.6666 97.7683 50.1396 97.7683 51.5089H92.3191C92.4258 50.4565 92.9599 48.6666 95.2038 48.6666ZM136.556 47.1914C133.67 47.1914 132.067 48.877 131.319 50.139V40.7653H130.998L124.908 41.6078V42.6626H125.123C127.045 42.6626 127.474 43.0823 127.474 44.9796V61.1995H131.319V54.2481C131.319 51.6135 133.242 49.614 134.845 49.614C136.982 49.614 136.982 51.1941 136.982 52.5625V61.1995H140.83V52.1433C140.83 50.6688 140.83 47.192 136.556 47.192M158.035 52.8797C158.035 49.0887 155.898 47.1914 151.727 47.1914C146.919 47.1914 144.569 49.4032 144.569 53.9312C144.569 58.6714 147.667 61.5167 152.796 61.5167C155.141 61.5167 156.862 60.9884 157.501 60.7797L157.709 60.6742V58.8831L157.397 58.9886C156.744 59.2 155.69 59.5142 154.399 59.5142C150.333 59.5142 148.73 56.146 148.73 53.0887H158.035V52.88L158.035 52.8797ZM151.52 48.6666C153.656 48.6666 154.191 50.1396 154.191 51.5089H148.729C148.73 50.4565 149.383 48.6666 151.52 48.6666ZM115.078 43.1897V47.5093H112.515V49.1913H115.078V57.6196C115.078 61.3053 117.428 61.5167 120.313 61.5167C121.061 61.5167 121.809 61.4112 122.557 61.3056H122.772V59.62H122.45C122.13 59.7256 121.702 59.7256 121.275 59.7256C119.031 59.7256 118.924 59.0941 118.924 57.1974V49.1916H123.199V47.509H118.924V43.1894H115.078M190.401 41.6081H186.558V56.4599C185.816 55.3029 176.63 41.6081 176.63 41.6081H167.755V42.6629L168.497 42.8749C170.857 43.1894 170.961 43.2949 170.961 45.5067V61.1998H175.131V45.612C175.873 46.7723 185.608 61.1998 185.608 61.1998H190.624V41.6084L190.401 41.6081ZM207.824 52.8797C207.824 49.0887 205.687 47.1914 201.413 47.1914C196.708 47.1914 194.26 49.4032 194.26 53.9312C194.26 58.6714 197.362 61.5167 202.585 61.5167C204.841 61.5167 206.652 60.9884 207.29 60.7797L207.512 60.6742V58.8831L207.186 58.9886C206.548 59.2 205.361 59.5142 204.084 59.5142C200.033 59.5142 198.534 56.146 198.415 53.1942H207.824L207.824 52.8797ZM201.309 48.6666C203.342 48.6666 203.876 50.1396 203.98 51.5089H198.415C198.534 50.4565 199.172 48.6666 201.309 48.6666ZM228.867 43.1897V47.5093H226.315V49.1913H228.867V57.6196C228.867 61.3053 231.227 61.5167 234.106 61.5167C234.863 61.5167 235.605 61.4112 236.347 61.3056H236.673V59.62H236.243C235.931 59.7256 235.605 59.7256 235.175 59.7256C232.83 59.7256 232.726 59.0941 232.726 57.1974V49.1916H237V47.509H232.726V43.1894H228.867M221.18 51.9314L225.128 47.5093H221.076L217.336 51.7209L214.027 47.5093H208.15V48.5595H208.462C210.391 48.7715 210.926 49.089 212.098 50.6688L214.562 53.8286L210.599 58.2516H214.666L216.372 56.2485L220.215 61.1998H224.712L217.544 51.9314H221.18Z" fill="white"/>
<path d="M228.867 43.1893H224.816L229.728 37.6057H233.795L228.867 43.1893Z" fill="white"/>
</g>
<defs>
<clipPath id="clip0_29_243">
<rect width="237" height="67" fill="white"/>
</clipPath>
</defs>
</svg>
