<svg version="1.1" id="Layer_1" xmlns:x="ns_extend;" xmlns:i="ns_ai;" xmlns:graph="ns_graphs;" xmlns="http://www.w3.org/2000/svg" xmlns:xlink="http://www.w3.org/1999/xlink" x="0px" y="0px" viewBox="0 0 325.6 108.9" style="enable-background:new 0 0 325.6 108.9;" xml:space="preserve">
 <style type="text/css">
  .st0{fill:#FFFFFF;}
 </style>
 <metadata>
  <sfw xmlns="ns_sfw;">
   <slices>
   </slices>
   <sliceSourceBounds bottomLeftOrigin="true" height="108.9" width="325.6" x="-111.1" y="-304.6">
   </sliceSourceBounds>
  </sfw>
 </metadata>
 <g>
  <g>
   <path class="st0" d="M163.7,29.4c-14.1-0.2-25.7,11-25.9,25.1c0,0.4,0,0.9,0,1.3v50.1l13-7.4V76.3c3.7,2.8,8.4,4.3,13.2,4.3
			c14.1,0.4,25.9-11,26.2-25.1c0.4-14.1-11-25.9-25.1-26.2C164.6,29.4,164.3,29.4,163.7,29.4L163.7,29.4z M163.7,67.7
			c-7.1,0-12.8-5.8-12.8-12.8c0-7.1,5.8-12.8,12.8-12.8s12.8,5.8,12.8,12.8l0,0c0.4,6.7-4.8,12.5-11.5,12.8
			C164.4,67.7,164.1,67.7,163.7,67.7z M252.9,13.2l13-7.6v73h-13V13.2z M220.5,29.4c-14.1,0.2-25.5,11.7-25.3,25.9
			c0.2,14.1,11.7,25.5,25.9,25.3c14.1-0.2,25.3-11.5,25.3-25.7S235,29.4,221,29.2C220.8,29.4,220.7,29.4,220.5,29.4L220.5,29.4z
			 M220.5,67.7c-7.1,0-12.8-5.8-12.8-12.8c0-7.1,5.8-12.8,12.8-12.8s12.8,5.8,12.8,12.8l0,0c0.4,6.7-4.8,12.5-11.5,12.8
			C221.2,67.7,220.8,67.7,220.5,67.7L220.5,67.7z M325.6,31.2l-30.5,69.6h-14l10.6-23.3l-20.5-46.4h14.1l13.4,30.3l12.8-30.3H325.6z
			">
   </path>
  </g>
  <g>
   <path class="st0" d="M31.2,73C21,73,12.8,64.7,12.8,54.5S21,35.9,31.2,35.9s18.4,8.3,18.4,18.6S41.4,73,31.2,73z M81.2,47.3
			L61.7,58.7l0.1-0.5l0.1-0.5l0.1-0.8l0-0.1l0-0.1l0-1l0-1.1l0-0.8l0-1.1l-0.1-1l-0.1-1.1l-0.1-0.6l-0.2-1.1l-0.2-1l-0.2-1l-0.2-1
			l-0.2-0.6l-0.3-1l-0.3-0.9l-0.3-0.8l-0.4-0.9l-0.4-0.9l-0.4-0.9l-0.5-0.9l-0.5-0.8l0-0.1l-0.5-0.8l-0.5-0.8L56.1,36l-0.6-0.8
			l-0.6-0.8l-0.1-0.1L54,33.6l-0.7-0.8L52.6,32l-0.8-0.8l-0.1-0.1l-0.9-0.7l-0.9-0.8L49,29l-1-0.8l-1.1-0.8L46,26.9l-1.3-0.8
			l-1.4-0.9l-0.5-0.3l-1.8-1l-0.4-0.3L39.5,23L0.1,0v14.4l19.5,11.3l-0.5,0.2l-0.4,0.2l-0.7,0.3l-0.1,0l-0.1,0L17,27l-0.9,0.5
			l-0.6,0.4l-0.9,0.6L13.7,29l-0.9,0.6L12.4,30l-0.8,0.7l-0.8,0.7L10,32l-0.7,0.7l-0.4,0.5l-0.7,0.7l-0.6,0.7l-0.5,0.6l-0.6,0.8
			l-0.6,0.8l-0.5,0.8l-0.5,0.8l-0.5,0.8l0,0.1l-0.5,0.9l-0.4,0.9L2.9,42l-0.4,0.9l-0.3,1l0,0.1l-0.3,1l-0.3,1l-0.3,1l-0.2,1.1l0,0.1
			l-0.2,1.1l-0.2,1.2l-0.2,1.2L0.3,53l-0.1,1.4l-0.1,1l-0.1,1.5l0,1.7l0,0.6l0,2.1l0,0.5L0,63v45.9l12.4-7.2V79l0.4,0.3l0.4,0.3
			l0.6,0.5l0,0l0,0l0.8,0.5l0.9,0.5l0.7,0.4l1,0.5l0.9,0.4l1,0.5l0.5,0.2l1,0.4l1,0.4l1,0.3l1,0.3l0.6,0.2l1,0.2l1,0.2l0.8,0.1
			l1,0.1l1,0.1l0.9,0.1l1,0l1,0l0.1,0l1,0l1-0.1l1-0.1l1-0.1l1-0.2l0.1,0l1-0.2l1-0.3l1-0.3l1.1-0.3l0.1,0l1.1-0.4l1.1-0.4l1.1-0.4
			l1.2-0.5l1.2-0.6l0.9-0.4l1.4-0.7l1.5-0.8l0.5-0.3l1.8-1l0.4-0.2l1.1-0.6l39.4-23L81.2,47.3L81.2,47.3z">
   </path>
  </g>
 </g>
</svg>